<?xml version="1.0" encoding="UTF-8" standalone="no"?>
<svg
   viewBox="0 0 64 64"
   version="1.1"
   id="svg2"
   sodipodi:docname="cockpit-logo-simple.svg"
   width="64"
   height="64"
   inkscape:version="1.4.2 (ebf0e940d0, 2025-05-08)"
   xmlns:inkscape="http://www.inkscape.org/namespaces/inkscape"
   xmlns:sodipodi="http://sodipodi.sourceforge.net/DTD/sodipodi-0.dtd"
   xmlns="http://www.w3.org/2000/svg"
   xmlns:svg="http://www.w3.org/2000/svg">
  <defs
     id="defs2" />
  <sodipodi:namedview
     id="namedview2"
     pagecolor="#000000"
     bordercolor="#000000"
     borderopacity="0.25"
     inkscape:showpageshadow="2"
     inkscape:pageopacity="0.0"
     inkscape:pagecheckerboard="0"
     inkscape:deskcolor="#d1d1d1"
     inkscape:zoom="9.7857143"
     inkscape:cx="20.489051"
     inkscape:cy="32.70073"
     inkscape:window-width="1920"
     inkscape:window-height="1052"
     inkscape:window-x="0"
     inkscape:window-y="0"
     inkscape:window-maximized="1"
     inkscape:current-layer="svg2" />
  <path
     d="M 32,0 C 14.354,0 -8.0000002e-8,14.353 -8.0000002e-8,32 -8.0000002e-8,49.647 14.354,64 32,64 49.646,64 64,49.646 64,32 64,14.354 49.646,0 32,0 Z m 0,4.795 c 15.057,0 27.218,12.148 27.218,27.204 C 59.218,47.055 47.057,59.204 32,59.204 16.944,59.204 4.7959999,47.056 4.7959999,32 4.7959999,16.944 16.944,4.795 32,4.795 Z"
     color="#000000"
     style="text-indent:0;text-decoration-line:none;text-transform:none;fill:#ffffff;stroke-width:1.369"
     id="path1" />
  <path
     d="m 42.87087,18.85587 c -1.306,-0.048 -3.285,0.978 -5.064,2.747 l -3.836,3.815 -11.496,-3.86 -2.242,2.314 8.668,6.587 -1.938,1.928 c -0.641243,0.636519 -1.212499,1.33986 -1.704,2.098 l -5.223,-0.39 -1.274,1.292 5.194,3.846 3.798,5.184 1.28,-1.283 -0.386,-5.274 c 0.658,-0.431 1.33,-0.966 1.977,-1.61 l 2.04,-2.029 6.652,8.735 2.314,-2.242 -3.878,-11.552 3.716,-3.695 c 2.372,-2.36 3.465,-5.121 2.451,-6.191 -0.253,-0.268 -0.613,-0.404 -1.049,-0.42 z"
     id="path2"
     style="fill:#ffffff;stroke-width:1.369"
     sodipodi:nodetypes="cccccccccccccccccccccc" />
</svg>
